<svg  display="none" xmlns="http://www.w3.org/2000/svg" >

<symbol viewBox="0 0 225 104" id="arrow">
<circle cx="175" cy="59" r="44" stroke="white" fill='none' />
<path d="M41 17L76 17" stroke="white"/>

<path d="M2.32031 25.002C2.32031 24.6829 2.42057 24.4141 2.62109 24.1953C2.83073 23.9674 3.11328 23.8535 3.46875 23.8535C3.83333 23.8535 4.12044 23.9629 4.33008 24.1816C4.53971 24.4004 4.64453 24.6738 4.64453 25.002C4.64453 25.3118 4.53971 25.5762 4.33008 25.7949C4.12044 26.0137 3.83333 26.123 3.46875 26.123C3.11328 26.123 2.83073 26.0137 2.62109 25.7949C2.42057 25.5762 2.32031 25.3118 2.32031 25.002ZM20.9004 14.3379V17.6875C20.9004 19.1458 20.7637 20.4173 20.4902 21.502C20.2168 22.5775 19.8158 23.4707 19.2871 24.1816C18.7676 24.8835 18.1296 25.4076 17.373 25.7539C16.6257 26.1003 15.7689 26.2734 14.8027 26.2734C14.0371 26.2734 13.3353 26.1641 12.6973 25.9453C12.0592 25.7266 11.4896 25.3939 10.9883 24.9473C10.4961 24.4915 10.0768 23.9219 9.73047 23.2383C9.38411 22.5547 9.11979 21.7526 8.9375 20.832C8.75521 19.9023 8.66406 18.8542 8.66406 17.6875V14.3379C8.66406 12.8704 8.80078 11.6035 9.07422 10.5371C9.35677 9.4707 9.75781 8.58659 10.2773 7.88477C10.806 7.18294 11.4486 6.66341 12.2051 6.32617C12.9616 5.97982 13.8184 5.80664 14.7754 5.80664C15.541 5.80664 16.2428 5.92057 16.8809 6.14844C17.528 6.36719 18.0977 6.69531 18.5898 7.13281C19.0911 7.57031 19.5104 8.13086 19.8477 8.81445C20.194 9.48893 20.4538 10.2865 20.627 11.207C20.8092 12.1276 20.9004 13.1712 20.9004 14.3379ZM19.2734 17.8789V14.1328C19.2734 13.2305 19.2096 12.4102 19.082 11.6719C18.9635 10.9336 18.7858 10.2865 18.5488 9.73047C18.3118 9.17448 18.0111 8.70964 17.6465 8.33594C17.291 7.96224 16.8717 7.68424 16.3887 7.50195C15.9147 7.31055 15.377 7.21484 14.7754 7.21484C14.0371 7.21484 13.3854 7.36523 12.8203 7.66602C12.2643 7.95768 11.7995 8.39518 11.4258 8.97852C11.0521 9.55273 10.7695 10.2728 10.5781 11.1387C10.3958 12.0046 10.3047 13.0026 10.3047 14.1328V17.8789C10.3047 18.7721 10.3639 19.5879 10.4824 20.3262C10.6009 21.0553 10.7832 21.7025 11.0293 22.2676C11.2754 22.8327 11.5762 23.3112 11.9316 23.7031C12.2962 24.0859 12.7155 24.3776 13.1895 24.5781C13.6725 24.7695 14.2103 24.8652 14.8027 24.8652C15.5592 24.8652 16.2155 24.7148 16.7715 24.4141C17.3275 24.1042 17.7923 23.653 18.166 23.0605C18.5397 22.459 18.8177 21.7253 19 20.8594C19.1823 19.9844 19.2734 18.9909 19.2734 17.8789ZM32.043 6.01172V26H30.416V8.07617L25.002 10.0859V8.54102L31.7695 6.01172H32.043Z" fill="white"/>

<path d="M99.8145 14.3379V17.6875C99.8145 19.1458 99.6777 20.4173 99.4043 21.502C99.1309 22.5775 98.7298 23.4707 98.2012 24.1816C97.6816 24.8835 97.0436 25.4076 96.2871 25.7539C95.5397 26.1003 94.6829 26.2734 93.7168 26.2734C92.9512 26.2734 92.2493 26.1641 91.6113 25.9453C90.9733 25.7266 90.4036 25.3939 89.9023 24.9473C89.4102 24.4915 88.9909 23.9219 88.6445 23.2383C88.2982 22.5547 88.0339 21.7526 87.8516 20.832C87.6693 19.9023 87.5781 18.8542 87.5781 17.6875V14.3379C87.5781 12.8704 87.7148 11.6035 87.9883 10.5371C88.2708 9.4707 88.6719 8.58659 89.1914 7.88477C89.7201 7.18294 90.3626 6.66341 91.1191 6.32617C91.8757 5.97982 92.7324 5.80664 93.6895 5.80664C94.4551 5.80664 95.1569 5.92057 95.7949 6.14844C96.4421 6.36719 97.0117 6.69531 97.5039 7.13281C98.0052 7.57031 98.4245 8.13086 98.7617 8.81445C99.1081 9.48893 99.3678 10.2865 99.541 11.207C99.7233 12.1276 99.8145 13.1712 99.8145 14.3379ZM98.1875 17.8789V14.1328C98.1875 13.2305 98.1237 12.4102 97.9961 11.6719C97.8776 10.9336 97.6999 10.2865 97.4629 9.73047C97.2259 9.17448 96.9251 8.70964 96.5605 8.33594C96.2051 7.96224 95.7858 7.68424 95.3027 7.50195C94.8288 7.31055 94.291 7.21484 93.6895 7.21484C92.9512 7.21484 92.2995 7.36523 91.7344 7.66602C91.1784 7.95768 90.7135 8.39518 90.3398 8.97852C89.9661 9.55273 89.6836 10.2728 89.4922 11.1387C89.3099 12.0046 89.2188 13.0026 89.2188 14.1328V17.8789C89.2188 18.7721 89.278 19.5879 89.3965 20.3262C89.515 21.0553 89.6973 21.7025 89.9434 22.2676C90.1895 22.8327 90.4902 23.3112 90.8457 23.7031C91.2103 24.0859 91.6296 24.3776 92.1035 24.5781C92.5866 24.7695 93.1243 24.8652 93.7168 24.8652C94.4733 24.8652 95.1296 24.7148 95.6855 24.4141C96.2415 24.1042 96.7064 23.653 97.0801 23.0605C97.4538 22.459 97.7318 21.7253 97.9141 20.8594C98.0964 19.9844 98.1875 18.9909 98.1875 17.8789ZM106.992 15.1445H108.66C109.681 15.1445 110.533 14.9714 111.217 14.625C111.91 14.2695 112.429 13.8001 112.775 13.2168C113.131 12.6335 113.309 11.9863 113.309 11.2754C113.309 10.4733 113.158 9.77148 112.857 9.16992C112.557 8.55924 112.096 8.08529 111.477 7.74805C110.866 7.40169 110.082 7.22852 109.125 7.22852C108.286 7.22852 107.539 7.39258 106.883 7.7207C106.227 8.04883 105.707 8.51823 105.324 9.12891C104.941 9.73958 104.75 10.4688 104.75 11.3164H103.123C103.123 10.2318 103.383 9.2793 103.902 8.45898C104.422 7.62956 105.137 6.98242 106.049 6.51758C106.96 6.05273 107.986 5.82031 109.125 5.82031C110.301 5.82031 111.322 6.03451 112.188 6.46289C113.062 6.89128 113.737 7.51562 114.211 8.33594C114.694 9.15625 114.936 10.1543 114.936 11.3301C114.936 11.9316 114.803 12.5241 114.539 13.1074C114.284 13.6908 113.901 14.2194 113.391 14.6934C112.88 15.1582 112.247 15.5319 111.49 15.8145C110.734 16.097 109.854 16.2383 108.852 16.2383H106.992V15.1445ZM106.992 16.5527V15.4727H108.852C109.991 15.4727 110.966 15.6048 111.777 15.8691C112.589 16.1243 113.254 16.4889 113.773 16.9629C114.302 17.4277 114.689 17.9701 114.936 18.5898C115.182 19.2096 115.305 19.875 115.305 20.5859C115.305 21.4974 115.154 22.304 114.854 23.0059C114.553 23.7077 114.124 24.3047 113.568 24.7969C113.021 25.2799 112.374 25.6491 111.627 25.9043C110.889 26.1504 110.077 26.2734 109.193 26.2734C108.391 26.2734 107.607 26.1549 106.842 25.918C106.085 25.681 105.402 25.3301 104.791 24.8652C104.189 24.3913 103.711 23.7988 103.355 23.0879C103 22.3678 102.822 21.5384 102.822 20.5996H104.449C104.449 21.4382 104.65 22.181 105.051 22.8281C105.452 23.4661 106.008 23.9674 106.719 24.332C107.439 24.6875 108.264 24.8652 109.193 24.8652C110.132 24.8652 110.934 24.7057 111.6 24.3867C112.274 24.0586 112.789 23.5801 113.145 22.9512C113.5 22.3223 113.678 21.5521 113.678 20.6406C113.678 19.6836 113.464 18.9043 113.035 18.3027C112.616 17.7012 112.028 17.2591 111.271 16.9766C110.524 16.694 109.654 16.5527 108.66 16.5527H106.992Z" fill="white" fill-opacity="0.6"/>

<path d="M181.061 60.0607C181.646 59.4749 181.646 58.5251 181.061 57.9393L171.515 48.3934C170.929 47.8076 169.979 47.8076 169.393 48.3934C168.808 48.9792 168.808 49.9289 169.393 50.5147L177.879 59L169.393 67.4853C168.808 68.0711 168.808 69.0208 169.393 69.6066C169.979 70.1924 170.929 70.1924 171.515 69.6066L181.061 60.0607ZM0 60.5L180 60.5L180 57.5L0 57.5L0 60.5Z" fill="white"/>

</symbol>
</svg>
